# xmcd CD database file
#
# Track frame offsets:
#	150
#	18986
#	37979
#	52661
#	75581
#	93906
#	115825
#	132661
#	153824
#	168069
#	196035
#	208526
#	227750
#	245731
#	261482
#	279232
#	303515
#
# Disc length: 4188 seconds
#
# Revision: 1
# Processed by: cddbd v1.5.2PL0 Copyright (c) Steve Scherf et al.
# Submitted via: CDex 1.70beta2
#
DISCID=d2105a11
DTITLE=Charlie Parker - Jazz Roads CD389 - Bebop - Charlie Parker Live Vol.4 (1948-52)
DYEAR=1900
DGENRE=Jazz
TTITLE0=Charlie Parker Quintet - Hot House
TTITLE1=Charlie Parker Quintet - Slow Boat To China
TTITLE2=Charlie Parker Quintet - Be Bop
TTITLE3=Charlie Parker Quintet - Hot House
TTITLE4=Charlie Parker Quintet - Scrapple From The Apple
TTITLE5=Charlie Parker Quintet - Oop-Bop-Sh-Bam
TTITLE6=Charlie Parker Quintet - Barbados
TTITLE7=Charlie Parker Quintet - Groovin' High
TTITLE8=Charlie Parker - Laura
TTITLE9=Charlie Parker - This Time The Dream's On Me
TTITLE10=Charlie Parker - Cool Blues
TTITLE11=Charlie Parker - My Little Suede Shoes
TTITLE12=Charlie Parker - Lester Leaps In
TTITLE13=Charlie Parker - Sly Mongoose
TTITLE14=Charlie Parker - Moose The Mooche
TTITLE15=Charlie Parker - Rocker
TTITLE16=Charlie Parker - Star Eyes
EXTD=
EXTT0=
EXTT1=
EXTT2=
EXTT3=
EXTT4=
EXTT5=
EXTT6=
EXTT7=
EXTT8=
EXTT9=
EXTT10=
EXTT11=
EXTT12=
EXTT13=
EXTT14=
EXTT15=
EXTT16=
PLAYORDER=
